{"accessors":[{"bufferView":0,"componentType":5123,"count":84,"type":"SCALAR"},{"bufferView":1,"componentType":5126,"count":48,"type":"VEC3","max":[2.5,11.125,0.8333334],"min":[-2.5,-11.125,-0.8333334]},{"bufferView":1,"byteOffset":576,"componentType":5126,"count":48,"type":"VEC3"},{"bufferView":2,"componentType":5123,"count":1512,"type":"SCALAR"},{"bufferView":3,"componentType":5126,"count":528,"type":"VEC3","max":[0.416666627,11.916666,1.70355654],"min":[-0.416666627,-11.916666,-1.70355654]},{"bufferView":3,"byteOffset":6336,"componentType":5126,"count":528,"type":"VEC3"},{"bufferView":4,"componentType":5123,"count":2742,"type":"SCALAR"},{"bufferView":5,"componentType":5126,"count":820,"type":"VEC3","max":[4.0,0.375,0.666666746],"min":[-4.0,-0.375,-0.666666746]},{"bufferView":5,"byteOffset":9840,"componentType":5126,"count":820,"type":"VEC3"},{"bufferView":6,"componentType":5123,"count":234,"type":"SCALAR"},{"bufferView":7,"componentType":5126,"count":94,"type":"VEC3","max":[3.75,3.16605353,3.836154],"min":[-3.75,-3.16605353,-3.836154]},{"bufferView":7,"byteOffset":1128,"componentType":5126,"count":94,"type":"VEC3"},{"bufferView":8,"componentType":5123,"count":18,"type":"SCALAR"},{"bufferView":9,"componentType":5126,"count":12,"type":"VEC3","max":[3.75,2.47881317,1.26471925],"min":[-3.75,-2.47881317,-1.26471925]},{"bufferView":9,"byteOffset":144,"componentType":5126,"count":12,"type":"VEC3"},{"bufferView":10,"componentType":5123,"count":828,"type":"SCALAR"},{"bufferView":11,"componentType":5126,"count":300,"type":"VEC3","max":[0.4166667,11.9302044,1.70835185],"min":[-0.4166667,-11.9302044,-1.70835185]},{"bufferView":11,"byteOffset":3600,"componentType":5126,"count":300,"type":"VEC3"},{"bufferView":12,"componentType":5123,"count":84,"type":"SCALAR"},{"bufferView":13,"componentType":5126,"count":48,"type":"VEC3","max":[-1.4775641,12.7173309,4.0],"min":[-3.84214735,3.24760246,1.707749]},{"bufferView":13,"byteOffset":576,"componentType":5126,"count":48,"type":"VEC3"},{"bufferView":14,"componentType":5123,"count":1512,"type":"SCALAR"},{"bufferView":15,"componentType":5126,"count":528,"type":"VEC3","max":[0.416666627,11.916666,1.70355654],"min":[-0.416666627,-11.916666,-1.70355654]},{"bufferView":15,"byteOffset":6336,"componentType":5126,"count":528,"type":"VEC3"},{"bufferView":16,"componentType":5123,"count":84,"type":"SCALAR"},{"bufferView":17,"componentType":5126,"count":48,"type":"VEC3","max":[3.553686,12.7173309,4.0],"min":[1.18910253,3.24760246,1.707749]},{"bufferView":17,"byteOffset":576,"componentType":5126,"count":48,"type":"VEC3"},{"bufferView":18,"componentType":5123,"count":36,"type":"SCALAR"},{"bufferView":19,"componentType":5126,"count":24,"type":"VEC3","max":[3.25,9.458333,0.247070313],"min":[-3.25,-9.458333,-0.247070313]},{"bufferView":19,"byteOffset":288,"componentType":5126,"count":24,"type":"VEC3"},{"bufferView":20,"componentType":5123,"count":828,"type":"SCALAR"},{"bufferView":21,"componentType":5126,"count":300,"type":"VEC3","max":[0.416666627,11.916666,1.70355654],"min":[-0.416666627,-11.916666,-1.70355654]},{"bufferView":21,"byteOffset":3600,"componentType":5126,"count":300,"type":"VEC3"},{"bufferView":22,"componentType":5123,"count":36,"type":"SCALAR"},{"bufferView":23,"componentType":5126,"count":24,"type":"VEC3","max":[3.250672,0.0384116173,1.2307539],"min":[-3.250672,-0.0384116173,-1.2307539]},{"bufferView":23,"byteOffset":288,"componentType":5126,"count":24,"type":"VEC3"},{"bufferView":24,"componentType":5123,"count":612,"type":"SCALAR"},{"bufferView":25,"componentType":5126,"count":228,"type":"VEC3","max":[0.2555338,11.291666,1.078712],"min":[-0.2555338,-11.291666,-1.078712]},{"bufferView":25,"byteOffset":2736,"componentType":5126,"count":228,"type":"VEC3"},{"bufferView":26,"componentType":5123,"count":612,"type":"SCALAR"},{"bufferView":27,"componentType":5126,"count":228,"type":"VEC3","max":[0.282877564,11.288682,1.07872021],"min":[-0.282877564,-11.288682,-1.07872021]},{"bufferView":27,"byteOffset":2736,"componentType":5126,"count":228,"type":"VEC3"}],"asset":{"copyright":"**Trial version, Do not use for commercial purpose!** Copyright \u00a9 BimAngle 2017-2019","generator":"**Trial version, Do not use for commercial purpose!** BimAngle Engine (For Revit) v5.0.9","version":"2.0"},"buffers":[{"uri":"3D.bin","byteLength":95964}],"bufferViews":[{"buffer":0,"byteLength":168,"target":34963},{"buffer":0,"byteOffset":168,"byteLength":1152,"byteStride":12,"target":34962},{"buffer":0,"byteOffset":1320,"byteLength":3024,"target":34963},{"buffer":0,"byteOffset":4344,"byteLength":12672,"byteStride":12,"target":34962},{"buffer":0,"byteOffset":17016,"byteLength":5484,"target":34963},{"buffer":0,"byteOffset":22500,"byteLength":19680,"byteStride":12,"target":34962},{"buffer":0,"byteOffset":42180,"byteLength":468,"target":34963},{"buffer":0,"byteOffset":42648,"byteLength":2256,"byteStride":12,"target":34962},{"buffer":0,"byteOffset":44904,"byteLength":36,"target":34963},{"buffer":0,"byteOffset":44940,"byteLength":288,"byteStride":12,"target":34962},{"buffer":0,"byteOffset":45228,"byteLength":1656,"target":34963},{"buffer":0,"byteOffset":46884,"byteLength":7200,"byteStride":12,"target":34962},{"buffer":0,"byteOffset":54084,"byteLength":168,"target":34963},{"buffer":0,"byteOffset":54252,"byteLength":1152,"byteStride":12,"target":34962},{"buffer":0,"byteOffset":55404,"byteLength":3024,"target":34963},{"buffer":0,"byteOffset":58428,"byteLength":12672,"byteStride":12,"target":34962},{"buffer":0,"byteOffset":71100,"byteLength":168,"target":34963},{"buffer":0,"byteOffset":71268,"byteLength":1152,"byteStride":12,"target":34962},{"buffer":0,"byteOffset":72420,"byteLength":72,"target":34963},{"buffer":0,"byteOffset":72492,"byteLength":576,"byteStride":12,"target":34962},{"buffer":0,"byteOffset":73068,"byteLength":1656,"target":34963},{"buffer":0,"byteOffset":74724,"byteLength":7200,"byteStride":12,"target":34962},{"buffer":0,"byteOffset":81924,"byteLength":72,"target":34963},{"buffer":0,"byteOffset":81996,"byteLength":576,"byteStride":12,"target":34962},{"buffer":0,"byteOffset":82572,"byteLength":1224,"target":34963},{"buffer":0,"byteOffset":83796,"byteLength":5472,"byteStride":12,"target":34962},{"buffer":0,"byteOffset":89268,"byteLength":1224,"target":34963},{"buffer":0,"byteOffset":90492,"byteLength":5472,"byteStride":12,"target":34962}],"materials":[{"pbrMetallicRoughness":{"baseColorFactor":[0.968627453,0.968627453,0.9372549,1.0],"metallicFactor":0.0,"roughnessFactor":0.5},"doubleSided":true},{"pbrMetallicRoughness":{"baseColorFactor":[0.0,0.0,0.0,1.0],"metallicFactor":0.0,"roughnessFactor":0.5},"doubleSided":true},{"pbrMetallicRoughness":{"baseColorFactor":[0.5019608,0.5019608,0.5019608,1.0],"metallicFactor":0.0,"roughnessFactor":0.5},"doubleSided":true},{"pbrMetallicRoughness":{"baseColorFactor":[0.356862754,0.6745098,0.929411769,1.0],"metallicFactor":0.0,"roughnessFactor":0.5},"doubleSided":true},{"pbrMetallicRoughness":{"baseColorFactor":[0.968627453,0.968627453,0.968627453,1.0],"metallicFactor":0.0,"roughnessFactor":0.5},"doubleSided":true}],"meshes":[{"primitives":[{"attributes":{"POSITION":1,"NORMAL":2},"indices":0,"material":0}],"name":"\u62c9\u4f38 [9779782]","extras":{"DbId":6,"ExId":"3c880fa0-766e-4f2f-9307-6724696cf607-00953a46"}},{"primitives":[{"attributes":{"POSITION":4,"NORMAL":5},"indices":3,"material":1}],"name":"\u62c9\u4f38 [9779788]","extras":{"DbId":8,"ExId":"3c880fa0-766e-4f2f-9307-6724696cf607-00953a4c"}},{"primitives":[{"attributes":{"POSITION":7,"NORMAL":8},"indices":6,"material":2}],"name":"\u653e\u6837 [9779798]","extras":{"DbId":9,"ExId":"3c880fa0-766e-4f2f-9307-6724696cf607-00953a56"}},{"primitives":[{"attributes":{"POSITION":10,"NORMAL":11},"indices":9,"material":0}],"name":"\u62c9\u4f38 [9779828]","extras":{"DbId":10,"ExId":"3c880fa0-766e-4f2f-9307-6724696cf607-00953a74"}},{"primitives":[{"attributes":{"POSITION":13,"NORMAL":14},"indices":12,"material":3}],"name":"\u62c9\u4f38 [9779828]","extras":{"DbId":10,"ExId":"3c880fa0-766e-4f2f-9307-6724696cf607-00953a74"}},{"primitives":[{"attributes":{"POSITION":22,"NORMAL":23},"indices":21,"material":1}],"name":"\u62c9\u4f38 [9779841]","extras":{"DbId":11,"ExId":"3c880fa0-766e-4f2f-9307-6724696cf607-00953a81"}},{"primitives":[{"attributes":{"POSITION":28,"NORMAL":29},"indices":27,"material":0}],"name":"\u62c9\u4f38 [9779859]","extras":{"DbId":12,"ExId":"3c880fa0-766e-4f2f-9307-6724696cf607-00953a93"}},{"primitives":[{"attributes":{"POSITION":31,"NORMAL":32},"indices":30,"material":1}],"name":"\u62c9\u4f38 [9779870]","extras":{"DbId":13,"ExId":"3c880fa0-766e-4f2f-9307-6724696cf607-00953a9e"}},{"primitives":[{"attributes":{"POSITION":16,"NORMAL":17},"indices":15,"material":1}],"name":"\u62c9\u4f38 [9779880]","extras":{"DbId":14,"ExId":"3c880fa0-766e-4f2f-9307-6724696cf607-00953aa8"}},{"primitives":[{"attributes":{"POSITION":19,"NORMAL":20},"indices":18,"material":2}],"name":"\u62c9\u4f38 [9779890]","extras":{"DbId":15,"ExId":"3c880fa0-766e-4f2f-9307-6724696cf607-00953ab2"}},{"primitives":[{"attributes":{"POSITION":25,"NORMAL":26},"indices":24,"material":2}],"name":"\u62c9\u4f38 [9779901]","extras":{"DbId":16,"ExId":"3c880fa0-766e-4f2f-9307-6724696cf607-00953abd"}},{"primitives":[{"attributes":{"POSITION":34,"NORMAL":35},"indices":33,"material":4}],"name":"\u62c9\u4f38 [9779936]","extras":{"DbId":23,"ExId":"3c880fa0-766e-4f2f-9307-6724696cf607-00953ae0"}},{"primitives":[{"attributes":{"POSITION":37,"NORMAL":38},"indices":36,"material":4}],"name":"\u62c9\u4f38 [9779966]","extras":{"DbId":26,"ExId":"3c880fa0-766e-4f2f-9307-6724696cf607-00953afe"}},{"primitives":[{"attributes":{"POSITION":40,"NORMAL":41},"indices":39,"material":4}],"name":"\u62c9\u4f38 [9779982]","extras":{"DbId":27,"ExId":"3c880fa0-766e-4f2f-9307-6724696cf607-00953b0e"}}],"nodes":[{"children":[1,2,3,4,5,6,7,8,9,10,11,12,13,14],"matrix":[0.3048,0.0,0.0,0.0,0.0,1.8167496E-08,-0.304799974,0.0,0.0,0.304799974,1.8167496E-08,0.0,0.0,0.0,0.0,1.0]},{"mesh":0,"translation":[-0.118896484,1.26923084,3.16666651],"name":"\u62c9\u4f38 [9779782]","extras":{"DbId":6,"ExId":"3c880fa0-766e-4f2f-9307-6724696cf607-00953a46"}},{"mesh":1,"translation":[3.13701916,-0.06410265,1.6875],"name":"\u62c9\u4f38 [9779788]","extras":{"DbId":8,"ExId":"3c880fa0-766e-4f2f-9307-6724696cf607-00953a4c"}},{"mesh":2,"translation":[-0.144230843,-12.8141022,2.835349],"name":"\u653e\u6837 [9779798]","extras":{"DbId":9,"ExId":"3c880fa0-766e-4f2f-9307-6724696cf607-00953a56"}},{"mesh":3,"translation":[-0.144230843,-9.688489,6.330513],"name":"\u62c9\u4f38 [9779828]","extras":{"DbId":10,"ExId":"3c880fa0-766e-4f2f-9307-6724696cf607-00953a74"}},{"mesh":4,"translation":[-0.144230843,-10.2575417,8.43320751],"name":"\u62c9\u4f38 [9779828]","extras":{"DbId":10,"ExId":"3c880fa0-766e-4f2f-9307-6724696cf607-00953a74"}},{"mesh":5,"translation":[-3.42548084,-0.06410265,1.6875],"name":"\u62c9\u4f38 [9779841]","extras":{"DbId":11,"ExId":"3c880fa0-766e-4f2f-9307-6724696cf607-00953a81"}},{"mesh":6,"translation":[-0.09596968,2.93589759,4.24707031],"name":"\u62c9\u4f38 [9779859]","extras":{"DbId":12,"ExId":"3c880fa0-766e-4f2f-9307-6724696cf607-00953a93"}},{"mesh":7,"translation":[1.93910253,-0.06410265,1.6875],"name":"\u62c9\u4f38 [9779870]","extras":{"DbId":13,"ExId":"3c880fa0-766e-4f2f-9307-6724696cf607-00953a9e"}},{"mesh":8,"translation":[-2.227564,-0.07764101,1.68270469],"name":"\u62c9\u4f38 [9779880]","extras":{"DbId":14,"ExId":"3c880fa0-766e-4f2f-9307-6724696cf607-00953aa8"}},{"mesh":9,"name":"\u62c9\u4f38 [9779890]","extras":{"DbId":15,"ExId":"3c880fa0-766e-4f2f-9307-6724696cf607-00953ab2"}},{"mesh":10,"name":"\u62c9\u4f38 [9779901]","extras":{"DbId":16,"ExId":"3c880fa0-766e-4f2f-9307-6724696cf607-00953abd"}},{"mesh":11,"translation":[-0.09664178,-12.8929539,4.980754],"name":"\u62c9\u4f38 [9779936]","extras":{"DbId":23,"ExId":"3c880fa0-766e-4f2f-9307-6724696cf607-00953ae0"}},{"mesh":12,"translation":[-3.264348,-0.06410265,1.6875],"name":"\u62c9\u4f38 [9779966]","extras":{"DbId":26,"ExId":"3c880fa0-766e-4f2f-9307-6724696cf607-00953afe"}},{"mesh":13,"translation":[3.00323,-0.0611181259,1.68749177],"name":"\u62c9\u4f38 [9779982]","extras":{"DbId":27,"ExId":"3c880fa0-766e-4f2f-9307-6724696cf607-00953b0e"}}],"scene":0,"scenes":[{"nodes":[0],"name":"glTF-Model"}]}